G04 Generated by Ultiboard 14.0 *
%FSLAX24Y24*%
%MOIN*%

%ADD10C,0.0001*%
%ADD11C,0.0001*%
%ADD12C,0.0050*%


G04 ColorRGB 00FFFF for the following layer *
%LNBoard Outline*%
%LPD*%
G54D10*
G54D11*
X-400Y-370D02*
X19300Y-370D01*
X19300Y11700D01*
X-400Y11700D01*
X-400Y-370D01*
G54D12*
X-500Y-470D02*
X-500Y757D01*
X-500Y-470D02*
X1490Y-470D01*
X19400Y-470D02*
X17410Y-470D01*
X19400Y-470D02*
X19400Y757D01*
X19400Y11800D02*
X19400Y10573D01*
X19400Y11800D02*
X17410Y11800D01*
X-500Y11800D02*
X1490Y11800D01*
X-500Y11800D02*
X-500Y10573D01*
X-2469Y-470D02*
X-6406Y-470D01*
X-4437Y-2439D02*
X-4437Y1498D01*
X-5913Y-470D02*
G75*
D01*
G02X-5913Y-470I1476J0*
G01*
X21369Y-470D02*
X25306Y-470D01*
X23337Y-2439D02*
X23337Y1498D01*
X21861Y-470D02*
G75*
D01*
G02X21861Y-470I1476J0*
G01*
X22845Y-470D02*
G75*
D01*
G02X22845Y-470I492J0*
G01*
X-2469Y11800D02*
X-6406Y11800D01*
X-4437Y9831D02*
X-4437Y13769D01*
X-5913Y11800D02*
G75*
D01*
G02X-5913Y11800I1476J0*
G01*
X-5421Y11800D02*
G75*
D01*
G02X-5421Y11800I984J0*
G01*
X-4929Y11800D02*
G75*
D01*
G02X-4929Y11800I492J0*
G01*

M02*
