G04 Generated by Ultiboard 14.0 *
%FSLAX24Y24*%
%MOIN*%

%ADD10C,0.0001*%
%ADD11C,0.0100*%
%ADD12C,0.0050*%
%ADD13C,0.0394*%
%ADD14R,0.0208X0.0208*%
%ADD15C,0.0392*%
%ADD16C,0.0633*%
%ADD17C,0.0573*%


G04 ColorRGB 0000FF for the following layer *
%LNCopper Bottom*%
%LPD*%
G54D10*
G54D11*
X17600Y4600D02*
X17400Y4600D01*
X2600Y3700D02*
X900Y5400D01*
X2600Y3000D02*
X2600Y3700D01*
X17600Y8000D02*
X15300Y5700D01*
X11400Y5700D02*
X15300Y5700D01*
X11400Y5700D02*
X10700Y6400D01*
X2200Y6000D02*
X1800Y6000D01*
X900Y5400D02*
X900Y6400D01*
X15000Y2500D02*
X15000Y2200D01*
X16000Y1200D01*
X7200Y6800D02*
X7200Y10200D01*
X7200Y6800D02*
X6400Y6000D01*
X6000Y8800D02*
X6400Y9200D01*
X5700Y6100D02*
X6000Y6400D01*
X5500Y6100D02*
X5700Y6100D01*
X6000Y6400D02*
X6000Y8800D01*
X900Y6400D02*
X1500Y7000D01*
X3600Y7000D01*
X3100Y5100D02*
X16900Y5100D01*
X17400Y4600D02*
X16900Y5100D01*
X3100Y5100D02*
X2200Y6000D01*
X1800Y10000D02*
X2700Y10900D01*
X4900Y10900D01*
X5600Y10200D01*
G54D12*
X-500Y-470D02*
X-500Y757D01*
X-500Y-470D02*
X1490Y-470D01*
X19400Y-470D02*
X17410Y-470D01*
X19400Y-470D02*
X19400Y757D01*
X19400Y11800D02*
X19400Y10573D01*
X19400Y11800D02*
X17410Y11800D01*
X-500Y11800D02*
X1490Y11800D01*
X-500Y11800D02*
X-500Y10573D01*
X-2469Y-470D02*
X-6406Y-470D01*
X-4437Y-2439D02*
X-4437Y1498D01*
X-5913Y-470D02*
G75*
D01*
G02X-5913Y-470I1476J0*
G01*
X21369Y-470D02*
X25306Y-470D01*
X23337Y-2439D02*
X23337Y1498D01*
X21861Y-470D02*
G75*
D01*
G02X21861Y-470I1476J0*
G01*
X22845Y-470D02*
G75*
D01*
G02X22845Y-470I492J0*
G01*
X-2469Y11800D02*
X-6406Y11800D01*
X-4437Y9831D02*
X-4437Y13769D01*
X-5913Y11800D02*
G75*
D01*
G02X-5913Y11800I1476J0*
G01*
X-5421Y11800D02*
G75*
D01*
G02X-5421Y11800I984J0*
G01*
X-4929Y11800D02*
G75*
D01*
G02X-4929Y11800I492J0*
G01*
G54D13*
X8600Y6400D03*
X10700Y6400D03*
X15000Y2500D03*
X5500Y6100D03*
X6400Y9200D03*
X6400Y6000D03*
X3600Y7000D03*
G54D14*
X1600Y3000D03*
X4600Y10200D03*
X7200Y10200D03*
X16000Y1200D03*
X17600Y8000D03*
X17600Y4600D03*
G54D15*
X1496Y2896D02*
X1704Y2896D01*
X1704Y3104D01*
X1496Y3104D01*
X1496Y2896D01*D02*
X4496Y10096D02*
X4704Y10096D01*
X4704Y10304D01*
X4496Y10304D01*
X4496Y10096D01*D02*
X7096Y10096D02*
X7304Y10096D01*
X7304Y10304D01*
X7096Y10304D01*
X7096Y10096D01*D02*
X15896Y1096D02*
X16104Y1096D01*
X16104Y1304D01*
X15896Y1304D01*
X15896Y1096D01*D02*
X17496Y7896D02*
X17704Y7896D01*
X17704Y8104D01*
X17496Y8104D01*
X17496Y7896D01*D02*
X17496Y4496D02*
X17704Y4496D01*
X17704Y4704D01*
X17496Y4704D01*
X17496Y4496D01*D02*
G54D16*
X2600Y3000D03*
X5600Y10200D03*
X8200Y10200D03*
X16000Y2200D03*
X17000Y2200D03*
X18000Y2200D03*
X17000Y1200D03*
X18000Y1200D03*
X17600Y9000D03*
X17600Y5600D03*
G54D17*
X1800Y10000D03*
X1800Y8000D03*
X1800Y6000D03*

M02*
