G04 Generated by Ultiboard 14.0 *
%FSLAX24Y24*%
%MOIN*%

%ADD10C,0.0001*%
%ADD11C,0.0100*%
%ADD12C,0.0050*%
%ADD13R,0.0126X0.0346*%
%ADD14R,0.0394X0.0669*%
%ADD15R,0.0354X0.0197*%
%ADD16R,0.0098X0.0296*%
%ADD17C,0.0394*%
%ADD18R,0.0669X0.0394*%
%ADD19R,0.0669X0.1299*%
%ADD20R,0.0208X0.0208*%
%ADD21C,0.0392*%
%ADD22C,0.0633*%
%ADD23R,0.0413X0.0689*%
%ADD24R,0.0866X0.0827*%
%ADD25R,0.0157X0.0394*%
%ADD26R,0.0394X0.0157*%
%ADD27C,0.0573*%


G04 ColorRGB 00FF00 for the following layer *
%LNCopper Top*%
%LPD*%
G54D10*
G54D11*
X9800Y2600D02*
X9800Y2800D01*
X9688Y2800D01*
X13400Y3200D02*
X13591Y3009D01*
X13591Y2800D01*
X13591Y3009D01*
X13400Y3200D01*
X5000Y3118D02*
X5000Y3400D01*
X4626Y3400D01*
X4800Y3800D02*
X4800Y3400D01*
X5000Y4082D02*
X5000Y3800D01*
X4626Y3800D01*
X4626Y4082D01*
X4626Y3400D02*
X4626Y3118D01*
X5400Y3400D02*
X5600Y3600D01*
X5374Y3118D02*
X5400Y3118D01*
X5400Y3400D01*
X13400Y3600D02*
X13400Y3200D01*
X13591Y4000D02*
X13591Y3791D01*
X13400Y3600D01*
X5374Y4082D02*
X5374Y4174D01*
X5400Y4200D01*
X12409Y4209D02*
X12800Y4600D01*
X12409Y4000D02*
X12409Y4209D01*
X4600Y7250D02*
X4600Y6750D01*
X4744Y6606D01*
X5400Y7250D02*
X5256Y7394D01*
X4800Y7700D02*
X4900Y7700D01*
X5000Y7600D02*
X5000Y7394D01*
X4900Y7700D02*
X5000Y7600D01*
X4744Y7644D02*
X4800Y7700D01*
X4744Y7256D02*
X4744Y7644D01*
X4744Y7394D02*
X4600Y7250D01*
X5400Y7200D02*
X5400Y7250D01*
X8200Y10400D02*
X8200Y10200D01*
X9800Y10900D02*
X9500Y11200D01*
X8600Y11200D01*
X9209Y10000D02*
X9000Y9791D01*
X9000Y9400D01*
X8200Y10800D02*
X8200Y10400D01*
X13400Y3300D02*
X12900Y3300D01*
X14066Y1266D02*
X13600Y800D01*
X14066Y1266D02*
X14066Y1400D01*
X8600Y4191D02*
X8591Y4200D01*
X8600Y3009D02*
X8591Y3000D01*
X7409Y4200D02*
X7400Y4200D01*
X8600Y4191D02*
X8600Y3009D01*
X7400Y3000D02*
X7409Y3000D01*
X7400Y4200D02*
X7400Y3000D01*
X8591Y2791D02*
X8591Y3000D01*
X9440Y8306D02*
X9440Y8400D01*
X9440Y7400D02*
X9400Y7400D01*
X9400Y6494D01*
X9440Y6400D02*
X9440Y6494D01*
X11800Y8500D02*
X11800Y8100D01*
X11243Y8357D02*
X11209Y8391D01*
X11428Y8357D02*
X11243Y8357D01*
X14972Y7413D02*
X14813Y7413D01*
X11557Y8043D02*
X11428Y8043D01*
X11600Y8000D02*
X11557Y8043D01*
X11700Y8000D02*
X11600Y8000D01*
X11800Y8100D02*
X11700Y8000D01*
X14813Y7413D02*
X14800Y7400D01*
X14800Y8400D02*
X11800Y8400D01*
X11209Y8391D02*
X11091Y8391D01*
X13000Y9800D02*
X13043Y9843D01*
X13000Y9600D02*
X13000Y9800D01*
X13043Y9843D02*
X13043Y9972D01*
X14843Y8357D02*
X14800Y8400D01*
X14972Y8357D02*
X14843Y8357D01*
X13043Y6243D02*
X13043Y6428D01*
X14400Y6200D02*
X14302Y6298D01*
X13000Y6200D02*
X13043Y6243D01*
X11000Y7800D02*
X10400Y7800D01*
X14600Y6800D02*
X14000Y7400D01*
X14302Y6298D02*
X14302Y6428D01*
X14800Y7400D02*
X12200Y7400D01*
X6960Y7432D02*
X6960Y7400D01*
X10100Y8900D02*
X8460Y8900D01*
X10400Y7800D02*
X9894Y8306D01*
X9440Y8306D01*
X7409Y6275D01*
X7409Y4200D01*
X5000Y6606D02*
X5000Y6400D01*
X8600Y11200D02*
X8200Y10800D01*
X9800Y9100D02*
X9800Y10900D01*
X9800Y9100D02*
X10000Y8900D01*
X4744Y6444D02*
X4744Y6606D01*
X2400Y2200D02*
X3708Y2200D01*
X1600Y3000D02*
X2400Y2200D01*
X3708Y2200D02*
X4626Y3118D01*
X10700Y6400D02*
X9535Y6400D01*
X18200Y4871D02*
X18200Y4900D01*
X17600Y5500D01*
X14200Y2600D02*
X15100Y1700D01*
X16500Y1700D01*
X17000Y2200D01*
X18200Y2500D02*
X17900Y2200D01*
X18200Y2500D02*
X18200Y4871D01*
X16000Y2200D02*
X14600Y3600D01*
X14600Y6800D01*
X14400Y3100D02*
X15000Y2500D01*
X14400Y3100D02*
X14400Y6200D01*
X13600Y800D02*
X7800Y800D01*
X6400Y2200D02*
X6400Y6028D01*
X6432Y6060D01*
X7800Y800D02*
X6400Y2200D01*
X6800Y6400D02*
X6800Y7240D01*
X8460Y8900D01*
X10200Y2200D02*
X9800Y2600D01*
X11671Y2200D02*
X12271Y2800D01*
X11671Y2200D02*
X10200Y2200D01*
X12271Y2800D02*
X12409Y2800D01*
X14000Y6428D02*
X13987Y6428D01*
X14200Y5200D02*
X14000Y5400D01*
X14000Y6428D01*
X14200Y2600D02*
X14200Y5200D01*
X13800Y4600D02*
X14000Y4400D01*
X12800Y4600D02*
X13800Y4600D01*
X14000Y4400D02*
X14000Y2300D01*
X13700Y2000D02*
X12900Y2000D01*
X12500Y1600D01*
X14000Y2300D02*
X13700Y2000D01*
X17600Y5500D02*
X17600Y6300D01*
X5256Y6606D02*
X5256Y6344D01*
X5500Y6100D01*
X9000Y9400D02*
X8800Y9200D01*
X6400Y9200D01*
X7200Y2300D02*
X8100Y2300D01*
X8591Y2791D01*
X8591Y3000D02*
X8591Y2800D01*
X8591Y4200D02*
X9809Y4200D01*
X8591Y2800D02*
X9688Y2800D01*
X11000Y4209D02*
X10991Y4200D01*
X15302Y7098D02*
X14972Y7098D01*
X16400Y6000D02*
X15302Y7098D01*
X16400Y3500D02*
X16400Y6000D01*
X17500Y2400D02*
X17500Y1700D01*
X16400Y3500D02*
X17500Y2400D01*
X17500Y1700D02*
X17000Y1200D01*
X4200Y6400D02*
X5000Y6400D01*
X4200Y6400D02*
X3600Y7000D01*
X5700Y11300D02*
X4600Y10200D01*
X6500Y11300D02*
X7200Y10600D01*
X6500Y11300D02*
X5700Y11300D01*
X7200Y10600D02*
X7200Y10200D01*
X12400Y4800D02*
X13000Y5400D01*
X13000Y6200D01*
X5571Y7200D02*
X5400Y7200D01*
X6800Y6400D02*
X6800Y2700D01*
X7200Y2300D01*
X5700Y7400D02*
X7200Y7400D01*
X5600Y7229D02*
X5600Y7300D01*
X5600Y8400D02*
X5600Y7200D01*
X5700Y7400D02*
X5600Y7300D01*
X5600Y8400D02*
X5600Y10200D01*
X3200Y4600D02*
X1800Y6000D01*
X5400Y4217D02*
X5017Y4600D01*
X3200Y4600D01*
X5400Y4200D02*
X5400Y4217D01*
X5600Y4400D02*
X2000Y8000D01*
X1800Y8000D01*
X5600Y3600D02*
X5600Y4400D01*
X13200Y9400D02*
X13000Y9600D01*
X14400Y9600D02*
X14200Y9400D01*
X13200Y9400D01*
X11091Y8391D02*
X10500Y7800D01*
X17600Y9000D02*
X16450Y7850D01*
X16050Y7850D01*
X14400Y9600D02*
X17800Y9600D01*
X18600Y8800D01*
X18600Y1800D02*
X18600Y8800D01*
X18600Y1800D02*
X18000Y1200D01*
X12000Y4400D02*
X12400Y4800D01*
X11309Y3421D02*
X10712Y2824D01*
X10712Y2800D01*
X12000Y4400D02*
X12000Y4112D01*
X11309Y3421D01*
X12800Y3400D02*
X11329Y3400D01*
X12900Y3300D02*
X12800Y3400D01*
X10391Y10000D02*
X10391Y9809D01*
X10898Y9302D01*
X11428Y9302D01*
X11245Y8700D02*
X10300Y8700D01*
X11245Y8700D02*
X11272Y8672D01*
X10300Y8700D02*
X10100Y8900D01*
X11555Y8700D02*
X11600Y8700D01*
X11800Y8500D01*
X11555Y8700D02*
X11528Y8672D01*
X11900Y7700D02*
X11456Y7700D01*
X12200Y7400D02*
X11900Y7700D01*
X11456Y7700D02*
X11428Y7728D01*
X11100Y7700D02*
X11401Y7700D01*
X11100Y7700D02*
X11000Y7800D01*
X11401Y7700D02*
X11428Y7728D01*
X15157Y8357D02*
X14972Y8357D01*
X15500Y8400D02*
X15200Y8400D01*
X17600Y6300D02*
X15500Y8400D01*
X15200Y8400D02*
X15157Y8357D01*
X10991Y4200D02*
X10991Y4944D01*
X9440Y6494D01*
G54D12*
X-500Y-470D02*
X-500Y757D01*
X-500Y-470D02*
X1490Y-470D01*
X19400Y-470D02*
X17410Y-470D01*
X19400Y-470D02*
X19400Y757D01*
X19400Y11800D02*
X19400Y10573D01*
X19400Y11800D02*
X17410Y11800D01*
X-500Y11800D02*
X1490Y11800D01*
X-500Y11800D02*
X-500Y10573D01*
X-2469Y-470D02*
X-6406Y-470D01*
X-4437Y-2439D02*
X-4437Y1498D01*
X-5913Y-470D02*
G75*
D01*
G02X-5913Y-470I1476J0*
G01*
X21369Y-470D02*
X25306Y-470D01*
X23337Y-2439D02*
X23337Y1498D01*
X21861Y-470D02*
G75*
D01*
G02X21861Y-470I1476J0*
G01*
X22845Y-470D02*
G75*
D01*
G02X22845Y-470I492J0*
G01*
X-2469Y11800D02*
X-6406Y11800D01*
X-4437Y9831D02*
X-4437Y13769D01*
X-5913Y11800D02*
G75*
D01*
G02X-5913Y11800I1476J0*
G01*
X-5421Y11800D02*
G75*
D01*
G02X-5421Y11800I984J0*
G01*
X-4929Y11800D02*
G75*
D01*
G02X-4929Y11800I492J0*
G01*
G54D13*
X4626Y3118D03*
X5000Y3118D03*
X5374Y3118D03*
X4626Y4082D03*
X5374Y4082D03*
X5000Y4082D03*
G54D14*
X12409Y4000D03*
X13591Y4000D03*
X7409Y4200D03*
X8591Y4200D03*
X9809Y4200D03*
X10991Y4200D03*
X12409Y2800D03*
X13591Y2800D03*
X7409Y3000D03*
X8591Y3000D03*
G54D15*
X9688Y2800D03*
X10712Y2800D03*
G54D16*
X4744Y6606D03*
X5000Y6606D03*
X5256Y6606D03*
X4744Y7394D03*
X5000Y7394D03*
X5256Y7394D03*
G54D17*
X8600Y6400D03*
X10700Y6400D03*
X15000Y2500D03*
X5500Y6100D03*
X6400Y9200D03*
X6400Y6000D03*
X3600Y7000D03*
G54D18*
X9440Y6494D03*
X9440Y7400D03*
X9440Y8306D03*
G54D19*
X6960Y7400D03*
G54D20*
X1600Y3000D03*
X4600Y10200D03*
X7200Y10200D03*
X16000Y1200D03*
X17600Y8000D03*
X17600Y4600D03*
G54D21*
X1496Y2896D02*
X1704Y2896D01*
X1704Y3104D01*
X1496Y3104D01*
X1496Y2896D01*D02*
X4496Y10096D02*
X4704Y10096D01*
X4704Y10304D01*
X4496Y10304D01*
X4496Y10096D01*D02*
X7096Y10096D02*
X7304Y10096D01*
X7304Y10304D01*
X7096Y10304D01*
X7096Y10096D01*D02*
X15896Y1096D02*
X16104Y1096D01*
X16104Y1304D01*
X15896Y1304D01*
X15896Y1096D01*D02*
X17496Y7896D02*
X17704Y7896D01*
X17704Y8104D01*
X17496Y8104D01*
X17496Y7896D01*D02*
X17496Y4496D02*
X17704Y4496D01*
X17704Y4704D01*
X17496Y4704D01*
X17496Y4496D01*D02*
G54D22*
X2600Y3000D03*
X5600Y10200D03*
X8200Y10200D03*
X16000Y2200D03*
X17000Y2200D03*
X18000Y2200D03*
X17000Y1200D03*
X18000Y1200D03*
X17600Y9000D03*
X17600Y5600D03*
G54D23*
X9209Y10000D03*
X10391Y10000D03*
G54D24*
X12334Y1400D03*
X14066Y1400D03*
G54D25*
X12098Y9972D03*
X12413Y9972D03*
X12728Y9972D03*
X13043Y9972D03*
X13357Y9972D03*
X13672Y9972D03*
X13987Y9972D03*
X14302Y9972D03*
X12098Y6428D03*
X12413Y6428D03*
X12728Y6428D03*
X13043Y6428D03*
X13357Y6428D03*
X13672Y6428D03*
X13987Y6428D03*
X14302Y6428D03*
G54D26*
X11428Y9302D03*
X11428Y8987D03*
X11428Y8672D03*
X11428Y8357D03*
X11428Y8043D03*
X11428Y7728D03*
X11428Y7413D03*
X11428Y7098D03*
X14972Y9302D03*
X14972Y8987D03*
X14972Y8672D03*
X14972Y8357D03*
X14972Y8043D03*
X14972Y7728D03*
X14972Y7413D03*
X14972Y7098D03*
G54D27*
X1800Y10000D03*
X1800Y8000D03*
X1800Y6000D03*

M02*
