M48
INCH,TZ
VER,1
FMAT,2
DETECT,ON
ATC,ON
T1C0.0236
T2C0.0420
T3C0.0433
%
T1
X8600Y6400
X10700
X15000Y2500
X5500Y6100
X6400Y9200
Y6000
X3600Y7000
T2
X1600Y3000
X2600
X4600Y10200
X5600
X7200
X8200
X16000Y2200
Y1200
X17000Y2200
X18000
X17000Y1200
X18000
X17600Y8000
Y9000
Y4600
Y5600
T3
X1800Y10000
Y8000
Y6000
M30
